<?xml version="1.0" encoding="UTF-8"?>
<svg id="Layer_1" data-name="Layer 1" xmlns="http://www.w3.org/2000/svg" viewBox="0 0 350.38 75.8">
  <defs>
    <style>
      .cls-1 {
        stroke-width: 0px;
      }
    </style>
  </defs>
  <path class="cls-1" d="M54.5.54c.4.5,0,.9-.8.9s-2,.7-2.8,1.6c-.8,1-2.2,1.3-3.8,1-1.4-.3-2-.3-1.3,0,1.8.8,1.5,3.4-.5,3.4-1.5,0-1.6.2-.3,1,.8.5,1,1,.4,1s-1.9-.9-2.9-2c-2-2.2-5-2.6-6.1-.9-.4.8-.9.7-1.5-.2-.5-.8-.3-1.7.4-2.1.8-.5.6-.8-.7-.8s-1.6.5-1.1,1.7c.4,1,.8,3.3.9,5.1.1,2.7-.1,3-1,1.7-1-1.4-1.3-1.3-2.5.2-.8.9-.9,1.4-.3,1,1.9-1.1,7.9,2.6,7.9,4.8s-2.5,2.9-6.7,2.3l-2.3-.3,2.3-2.3c1.2-1.2,1.8-2.2,1.3-2.2-.6,0-1.6.9-2.4,2s-3.1,2.2-5.8,2.6c-2.4.4-5,1.2-5.8,1.8-1.2.9-1.4.7-.8-.9.6-1.7.4-1.7-1,.3-1.5,2.1-1.7,2.2-3.5.6-1-1-3.1-1.9-4.6-2-2-.2-2.3-.1-1.2.6,1.3.9,1.3,1,0,1-1.2,0-1.6,1-1.5,3.9,0,2.6.4,3.7,1.3,3.4.6-.3,1.2-.1,1.2.5,0,.5,1.4,1.2,3,1.4,3.1.5,3.5.1,2.2-2-.5-.7-1.5-1-2.4-.7-1.9.8-4-1.8-3.2-3.9,1-2.5,4.8-1.6,5.2,1.2.2,1.2.8,2,1.3,1.6.6-.3,2,.4,3.1,1.6s2.7,1.9,3.5,1.6c.9-.4,1.1-.2.7.6-.5.8-.2.9,1.2.3,1-.5,7-1,13.2-1.2,8.2-.1,11.8-.6,13.4-1.8,1.4-.9,1.7-1.5.8-1.5-1.1,0-1.1-.3-.2-1.2.7-.7.8-1.7.1-3-.6-1.2-.6-1.8.1-1.8.5,0,1,.5,1,1.2,0,.6.6.4,1.3-.7.8-1,1.9-1.5,2.4-1.2.6.4,3,0,5.3-.8,5.7-2,8.5-1.9,12.9.5,5,2.9,8.2,8.1,8.8,14.6,1.6,15-11.1,24.8-23.7,18.4-2.2-1.1-4-1.7-4-1.3,0,1.3,6.8,5.3,8.9,5.3,1.1,0,2.3.4,2.6,1,1.1,1.8-2,1-8.5-2.3-6-3-7.4-3.2-19-3.7l-12.5-.5v-2.5q0-2.5,10.7-2.8l10.7-.3,1.6,3.1c1.8,3.4,3.2,3.8,5.1,1.2,1-1.2,1.6-1.4,2.1-.5,1.5,2.2,6,2.5,9.7.8,4.1-2,7.6-8.2,7.6-13.8,0-3.5-.1-3.6-3-3.1-5.5,1.2-8.2-3.9-3.7-7.1l2.2-1.6-2.5-1.9c-2.8-2.2-4.7-2.4-8.4-1-3,1.1-3.3,2.5-1,3.4,1.4.5,1.5.4.4-.9-1.1-1.4-.8-1.5,2.7-1.3,3,.2,4,.7,3.8,1.8-.2.8-.4,1.7-.4,2-.1.3-.5-.1-.9-.8-.6-.8-.9,0-.9,2.3,0,1.9.4,3.5.9,3.5s.7,1,.4,2.2c-.3,1.3-.3,1.7,0,1,.7-1.6,2.5-1.6,2.1,0-.1.8.8,1.2,2.6,1,3.4-.4,4.1,1.2,2.4,5.9-.8,2.3-1.7,3.4-2.7,3.2-1.2-.4-1.2-.3-.2.5,1,.7.8,1.3-1.1,2.5-2.7,1.7-8.9,1.5-9.6-.4-.2-.6-1.3-.2-2.6,1.1l-2.2,2.1-1.4-3.3c-.7-1.8-1.3-4.4-1.2-5.8.1-2,0-2.1-.3-.3-.6,2.7-4.2,3.6-9.6,2.3-2.4-.5-5.6-1.1-7.3-1.3-1.6-.2.7-.5,5.3-.6,12.3-.2,10-2-3-2.3-10.5-.3-11.3-.4-11.3-2.3s.8-2,10.4-2.3c6-.2,11.1-.8,12.1-1.5,1.4-1-.6-1.2-10.2-1.2-10.6.1-12.2.3-13.4,2s-1.5,1.7-3.1.3c-2.8-2.4-8.7-3.1-12.7-1.4-2,.8-3.6,1.9-3.6,2.5,0,.5-.3,1.8-.7,2.8-.3,1-.3,1.5.1,1.1.5-.4,2,.4,3.4,1.8,2.9,2.6,3.8,2.9,4.7,1.4,1-1.6,4.1-1.2,5.6.7,1.2,1.4,1.2,1.6-.1,1.1-2-.7-2.1,5.2-.1,7.5,1.7,2.1,4.7,2.2,5.8.3.7-1.2,1.4-1.2,4.8.4,3,1.4,5.6,1.7,10.5,1.4l6.5-.4-.4,4.6c-.2,2.6-.6,4.3-1,3.8-1-1.5-4.5-4-3.8-2.7.4.7-.1,1.4-1.2,1.8-2.5.8-3.5,3.8-2.2,6.3,1.6,2.9,3.6,3.3,7.5,1.2,2.2-1.1,3.5-1.4,3.4-.7-.3,1.5,4.2,7.7,5.5,7.7.6,0,.2-1-.9-2.2-1.6-1.8-1.4-1.8,2,.5,2.2,1.4,4.4,2.3,4.9,2s12.7-.5,27.2-.4c23.4.2,26.7,0,30.1-1.6s6.8-4.7,6.9-6.3c0-.3.4-1,.8-1.6.9-1.6,1.6-11.5.8-13.6-.6-1.6-.9-1.6-3.6-.2l-3,1.5,2.5-2.8c1.4-1.5,3.1-3.2,3.8-3.8s1.3-1.5,1.2-2c-.2-.6-.2-3.5-.1-6.5.1-4,.4-5.1,1.1-4,.5.8,1,1.1,1,.7,0-1.4-5.1-10.1-6.8-11.5-1-.7-1.2-1.1-.5-.8,2,1,2.4-1,.5-2.6-8.5-7.5-21.9-2.3-25.6,10.1-2.2,7.6-.2,17.4,4.5,21.7,6.5,5.8,14.2,6.8,20,2.5,1.6-1.2,3.1-2.1,3.4-2.1.2,0,.4,2.6.2,5.8-.3,6.5-2.5,10.2-7.8,13.4-2.6,1.6-5.5,1.8-25.4,1.8h-22.5v-13.7l3.8-.7c4.8-.7,11.9-6.7,14.3-12,1.2-2.6,1.9-6.5,1.9-10.7,0-18.3-16-29.5-29.4-20.4-2.5,1.7-5.1,2.5-7.8,2.5h-4.1l.6-3.6c1.1-6.6,5.3-10.9,11.8-11.9,2.9-.5,3.1-.4,1.3.6-1.9,1-7.2,8.9-6,8.9.3,0,2.1-1.1,4-2.4,4.4-2.9,11.7-4.2,14.8-2.5,1.3.7,4.9,3.7,8.1,6.8l5.8,5.5,5.3-5.3c4.9-4.8,5.4-5.1,5.9-3.1.5,2.1.6,2.1,3.8.5,4.3-2.3,12-1.6,16,1.4l3,2.2-1.9-3.8c-2.4-4.6-6.7-7.3-11.7-7.3-2.1,0-3.4-.4-3-1,.9-1.5,7.3-1.2,10.8.5,1.8.9,4.1,2.7,5.1,4.2,2.5,3.4,4.8,14,3.2,14.8-.8.3-.7.7.2,1.1.6.3,1,1,.7,1.5-.4.5.1.6,1,.3,1.1-.5,1.4-.2.9,1.2-.5,1.6-.4,1.6.5.4.8-1.1.7-1.8-.2-2.5-1.5-1.2-1.9-13.7-.4-12.8.6.3.7.1.3-.6-.4-.6-1.1-.9-1.5-.7-.4.3-1.5-1.1-2.6-3-1-1.9-2.4-3.4-3.2-3.4-.7,0-1.3-.4-1.3-.9,0-1.6-7-3.3-10.6-2.7-1.9.4-3.8,1.6-4.4,2.7-.6,1-.7,1.8-.3,1.7,1.7-.4,9.3,1.4,9.9,2.4.5.7-.3.9-2.2.5-1.5-.3-3.9-.1-5.3.4-1.7.7-2.7.6-3.3-.3-.6-1-.8-.8-.8.4,0,1-.4,1.8-1,1.8-.5,0-1-.5-1-1,0-1.8-3.8-1.1-5.3,1-.8,1.1-1.7,1.7-2.1,1.2-.4-.4-.6-.3-.4.3.3,1-.4,1.5-2.3,1.5-.5,0-.8-.4-.5-.8.7-1.1-4-.9-5.1.2-.4.5-.3.6.4.2,1.5-.8,6.4,1.4,5.6,2.7-.3.5-.9.4-1.3-.3s-1.8-1.3-3.1-1.4c-1.7-.1-2.4-.7-2.2-1.9,0-1-.1-1.6-.4-1.3s-1.5,0-2.6-.5c-1.6-.9-1.7-1.3-.6-2.1s1.1-.9-.3-.5c-2.1.7-3.1-.3-1.7-1.9,1.4-1.7-.9-3-2.4-1.5-.9.9-.7,1.1.8.5,1.6-.6,1.8-.4.8.6-.9,1-1.6,1-2.5.2-.7-.6-3.7-.9-6.6-.7-3.2.2-5,0-4.7-.6.4-.5,1.2-.6,1.8-.3.7.4.5-.1-.3-1-1.7-1.8-8.4-4.1-7.5-2.5ZM41.5,9.44c.8,2.6-.1,4-2.6,4-2.2,0-3.4-2.2-2.5-4.5.8-2.2,4.4-1.8,5.1.5ZM41.8,17.54c-1,.7-.8.9.7.9,1.7,0,1.7.2.5,1-2.6,1.7-3.8,1.1-3.5-1.6.3-3.1,2.8-5.2,3.3-2.7.2.8-.2,1.9-1,2.4ZM73.5,16.44c.3.6-.1.7-.9.4-1.8-.7-2.1-1.4-.7-1.4.6,0,1.3.4,1.6,1ZM59,17.84c0,1.1-1.9,1.5-2.5.6-.3-.5.1-1,.9-1,.9,0,1.6.2,1.6.4ZM114.7,22.44c4.4,2.6,7.3,8.7,7.3,15,0,8.8-4.8,14.9-12.4,15.7-5.2.6-11.1-2.4-12.7-6.4-1.2-3.2-1.1-4.6.1-3.8.6.4.7,1.1.4,1.7-.4.6.1.8,1.5.3,1.4-.4,2.1-.2,2.1.6,0,.7.6.4,1.5-.7,2.2-2.9,1.8-6-1-7.8-1.5-1-2.5-1.2-2.5-.6s-.4.9-.8.6c-.4-.2-1.4,0-2.2.6-1.2.8-1.1.8.5.3s1.8-.4.8.6c-.8.8-1.6.9-2.2.3-1.3-1.2.7-10.5,2.6-12.4,1.4-1.3,1.5-1.3.9,0-.4.8,0,.6.8-.4.9-1.1,1.6-2.3,1.6-2.6,0-1.2,4.4-2.9,7.5-2.9,1.7-.1,4.4.8,6.2,1.9ZM48.5,25.44l-1.5,3-12.9-.1c-13.4,0-16.1-.8-14.7-4.4.4-1.2,3.1-1.5,15.6-1.5h15.1l-1.6,3ZM17.5,36.94c0,1.7-.8,2-5.8,2.3-4.6.2-5.8,0-6.4-1.4-1-2.7,1.9-4.1,7.4-3.5,3.9.5,4.8,1,4.8,2.6ZM26.1,41.44c3.1,0,3.7,2,.8,2.8-1.1.3-1.1.1.1-.8,1.3-1,1.3-1.1,0-.7-.8.2-1.4,1.1-1.2,2,.2,1-.4,1.5-1.8,1.4-2.2-.1-2.6-1.2-1-2.2,1.3-.8.3-2.5-1.3-2.5-.8,0-.8.3.2.9,1.5,1,.3,2.1-2,1.8-3.4-.6-4.1-1.9-2-3.8,1.2-1.1,2.1-2.5,2.1-3.2.1-.7.8,0,1.6,1.5,1.1,2.1,2.2,2.8,4.5,2.8ZM101.7,40.04c.8,2.1-1.3,4.2-2.8,2.7-1.3-1.3-.5-4.3,1.1-4.3.6,0,1.3.7,1.7,1.6ZM36.3,44.14c-1.3.2-3.3.2-4.5,0-1.3-.2-.3-.4,2.2-.4s3.5.2,2.3.4ZM21,46.94c1,1.2,1,1.8,0,3-2.5,3-6.1.7-4.6-3,.3-.8,1.2-1.5,1.9-1.5.8,0,2,.7,2.7,1.5ZM24.3,48.44c.3,1.1.1,2-.4,2s-.9-.9-.9-2,.2-2,.4-2,.6.9.9,2ZM58.6,57.64c3.8,2,4,2.3,3.8,6.2-.4,10.3-.1,9.6-3.8,9.6-6.8,0-13.6-7.4-13.6-15v-3.5l4.8.3c2.6.2,6.5,1.3,8.8,2.4ZM74.5,55.34c-.6.5-2.3,1.2-4,1.5-2.8.6-2.8.5.5-.8,4.3-1.8,4.6-1.8,3.5-.7ZM41.4,66.24c-1.4,2.2-3.4,2.2-4.8-.1-.9-1.5-.7-2.1.9-3.3,1.7-1.2,2.1-1.2,3.4.1,1.2,1.2,1.3,1.9.5,3.3ZM43.7,66.64c-.3.8-.6.5-.6-.6-.1-1.1.2-1.7.5-1.3.3.3.4,1.2.1,1.9ZM48.1,70.14c1.3,1.6,1.2,1.7-.3.4-1.7-1.3-2.2-2.1-1.4-2.1.2,0,1,.8,1.7,1.7Z"/>
  <path class="cls-1" d="M109.6,23.24c-.3.4.4.9,1.5.9,2.3.2,2.5-.3.4-1-.8-.4-1.6-.3-1.9.1Z"/>
  <path class="cls-1" d="M101.5,24.44c-.3.5.1,1,1,1,1.3,0,1.4.4.5,2-2.3,4.3,0,9,4.4,9,1.9,0,2.6.5,2.6,2,0,2.1-3.3,6-5,6-.5,0-1,.5-1,1.1,0,.8.5.8,1.5-.1,1-.8,1.5-.9,1.5-.1,0,1.3-4.4,2.5-6.5,1.7-.8-.3-1.5-.1-1.5.4s1.1,1.2,2.5,1.6c5.2,1.3,10.5-5.3,10.5-13.1,0-3.3-.1-3.4-2-2.3-4.3,2.7-8.1-3.6-4-6.5q2.2-1.5.2-2.6c-2.6-1.4-3.9-1.4-4.7-.1Z"/>
  <path class="cls-1" d="M111.3,27.04c-1.8,1.4-3.3,3.1-3.3,3.7s.7.2,1.5-1c1-1.5,2.2-2,3.3-1.6.9.3,1.4.3,1-.2-.4-.4-.3-1.4.3-2.2,1.7-2,.8-1.6-2.8,1.3Z"/>
  <path class="cls-1" d="M112.5,30.44c-.3.6.1.7.9.4,1.8-.7,2.1-1.4.7-1.4-.6,0-1.3.4-1.6,1Z"/>
  <path class="cls-1" d="M107,50.44c-.9.6-1,1-.3,1,.6,0,1.5-.5,1.8-1,.8-1.2.4-1.2-1.5,0Z"/>
  <path class="cls-1" d="M47,59.94c0,5.9,5.3,11.5,10.8,11.5,2.8,0,2.9-.2,3.1-5.4.1-3-.3-5.7-.9-6.1s-1,1.3-1,4.9c0,3.8-.4,5.6-1.2,5.6-2.4-.1-6.3-2.8-6.3-4.4,0-.9-.4-1.6-1-1.7-1.6-.1-2.7-2.8-2-4.9.4-1.1.2-2-.4-2s-1.1,1.1-1.1,2.5Z"/>
  <path class="cls-1" d="M50,58.54c0,.5.5.7,1,.4.6-.3,1-.8,1-1.1,0-.2-.4-.4-1-.4-.5,0-1,.5-1,1.1Z"/>
  <path class="cls-1" d="M43,4.74c0,1,.8,1.7,1.8,1.7.9,0,1.3-.4.7-.8-.5-.4-1.3-1.1-1.7-1.6-.5-.5-.8-.2-.8.7Z"/>
  <path class="cls-1" d="M97.6,4.94c-.9,2.6-.7,3.2.5,1.2.6-1,.9-2.1.6-2.3-.2-.3-.7.2-1.1,1.1Z"/>
  <path class="cls-1" d="M94.5,6.44c.3.5.8,1,1.1,1,.2,0,.4-.5.4-1,0-.6-.5-1-1.1-1-.5,0-.7.4-.4,1Z"/>
  <path class="cls-1" d="M124.1,8.04c0,1.1.3,1.4.6.6.3-.7.2-1.6-.1-1.9-.3-.4-.6.2-.5,1.3Z"/>
  <path class="cls-1" d="M71,9.84c0,.2.8,1,1.8,1.7,1.5,1.3,1.6,1.2.3-.4s-2.1-2.1-2.1-1.3Z"/>
  <path class="cls-1" d="M217.6,13.84c.5,1.3-.8,2.2-1.9,1.3-1.1-.8-3.9,4-4.1,7.1q-.2,3.7,4.1,4c3.2.2,4.5-.1,4.9-1.3.3-.8,1.2-1.5,1.9-1.5,1.1,0,1-.6-.2-3.1-.8-1.7-2.1-3.3-2.8-3.6-.8-.2-1.1-1.1-.9-1.8.3-.7.1-1.6-.5-2-.7-.3-.8,0-.5.9ZM219.5,19.04c1.8,1.9,1.6,3.3-.8,4.8-1.8,1.1-4.7,0-5.4-2.1-.4-1.2,2.3-4.3,3.7-4.3.5,0,1.6.7,2.5,1.6Z"/>
  <path class="cls-1" d="M300,13.34c0,.5.5,1.3,1,1.6.6.3,1,.2,1-.4,0-.5-.4-1.3-1-1.6-.5-.3-1-.2-1,.4Z"/>
  <path class="cls-1" d="M294.4,16.24c0,1.5-.3,4-.5,5.7-.3,2.1,0,2.9,1,2.7.9-.2,1.1.3.7,1.3-.3.9-.6,2-.6,2.3,0,.4-.8-.5-1.7-1.8-1-1.4-1.7-2.9-1.5-3.3.1-.5-.2-.6-.7-.2-.6.3-1.4-.2-2-1.2-1-2-7.2-2.4-7.9-.5-.2.7-1.1,1.2-2,1.3-1.1,0-1.2.2-.4.6.6.2,1.2.9,1.2,1.4,0,.6-.4.8-.9.4-.5-.3-1.3.5-1.6,1.6-.7,2-.8,2-1.7.6-.5-1-1.7-1.7-2.7-1.7-1.1,0-2.1-.7-2.5-1.5-.3-.8-1.1-1.5-1.8-1.5-1,0-1,.2,0,.9.9.5-.3,1-3.6,1.5-4.8.6-7.9,2.5-6.5,3.9.3.4.1.7-.5.7s-1.9-.8-2.9-1.9c-2.9-3-5.9-4.2-8.5-3.3-1.3.5-6.1.7-10.8.5-4.7-.1-10.2.2-12.2.9l-3.8,1.1v19.7h-6v-10.3c-.1-9.4-.2-10-1.6-8.2q-1.6,2-3.1-.3c-.9-1.2-2.2-2.2-2.9-2.2-.8,0-1.4-.5-1.4-1.1,0-.5-.4-.7-1-.4-.5.3-3.9.7-7.5.9-7.7.4-9.8,1.7-8.4,5.3,1.5,4,.3,3.9-1.6,0-2.7-5.7-10.9-7.5-17-3.7l-3.2,2,.1-3.9c.2-3.3-.2-4.2-2.6-5.6-2.8-1.6-6.8-1.3-6.8.6,0,.6-.5.7-1,.4-.6-.4-1-.3-.9.2.4,1.6-2.4,6.2-3.4,5.6-.6-.3-.7-.1-.3.5s.2,2.1-.5,3.4c-1.1,2.1-1.2,2.1-2.9-1.3-1-1.9-1.6-3.7-1.4-4.1.7-1-1.6-5.1-2.3-4.4-.4.3-1.4-.1-2.3-.9-1.1-1-2.4-1.2-4.5-.6l-3,.7-.3,13.8c-.1,8,.2,14.3.7,15,1.6,1.8,6,1.2,7.7-1.2.9-1.3,1.2-3.2.8-4.9l-.6-2.8,2.7,3.2c2.8,3.5,6.2,4.3,7.1,1.8.4-.8,1-1.3,1.4-1s.7-.1.6-.8c0-.6.4-1.2.9-1.2.6,0,1,1.1,1,2.5.1,4.3,1.3,5.3,5.9,4.6,2.9-.4,3.7-.3,2.6.4-.9.6-1,1-.3,1,1.6,0,2.6-1.7,1.3-2.5-.6-.4-.8-1.1-.5-1.6.4-.5,1.2-.3,1.9.4.8.6,1.2,1.5.9,1.9-.4.8,2.8,1.2,5.6.9.7-.2,1.1.1.8.6-.3.4.8.8,2.4.9,2.6.1,2.7,0,1.1-1.2-1.5-1.2-1.2-1.3,2.2-.9,5.2.5,7.4-.8,7.9-4.8.3-2.9.4-2.9.5.8l.2,4,5.7.1c3.1,0,5.1-.2,4.5-.4-1.5-.5-1.6-12.8-.1-13.8.6-.3,1.6-.1,2.2.5.8.8.6,1.1-.6,1.1-.9,0-1.7.5-1.7,1.1,0,.5.4.8.9.4,1.4-.8,1.9.4,2.2,5.5.4,5.2,1.7,7.3,3.7,5.8.9-.8,1.1-.7.6.7-.6,1.5-.2,1.4,2.5-.6,1.9-1.4,3.5-2,3.9-1.4s1.3,1.1,2.1,1.3c2.2.5,7.2-.9,6.6-1.8-.3-.5-.1-1.1.5-1.5.5-.3,1,.3,1,1.3,0,1.4.8,2.1,3,2.4,1.7.3,3,.1,3-.4s.5-.6,1-.3c1.4.9,2.1-1.4,2.3-8.1.2-3.7.7-5.9,1.6-6.2,1-.3,1.2.8,1,4.4-.3,5.8.7,10.1,2.7,10.8.8.3,1.4.1,1.4-.3,0-.5.9-.7,2-.4,3,.8,4.5-1.7,4.5-7.7.1-7.5,1.9-8,2.3-.5.2,3.2.7,6.4,1.2,7,.6.7.5,1.6-.2,2.3-.9.9-.9,1.2-.1,1.2.6,0,1.3-.5,1.5-1.2.3-.7,1.2-.9,2.2-.5s1.6,1.3,1.3,2c-.3.8.1,1.4.9,1.4.7,0,1.1-.4.8-.9-.3-.4.3-2.1,1.2-3.7,1.5-2.5,1.9-2.7,3.1-1.5.8.8,1.2,1.7,1,2.2-.6.9,5.1.7,8.1-.2,1.1-.4,2.3-.2,2.7.4.3.5,1.7.7,3.1.4,1.4-.4,2.4-.2,2.4.5,0,.6.7.8,1.6.4,1.1-.4,1.2-.8.4-1.3s-.9-1.3-.4-2.1c.4-.7.7-2.9.7-4.9l-.1-3.5.7,3.1c.8,3.2,7.1,10.4,7.1,8.1,0-.9,1.1-1.2,3.5-.9,2.3.3,3.5,0,3.5-.8,0-.9.3-1,1.4-.1,1.4,1.2,6.3,1,8.5-.3.8-.5,1-1.8.7-3.5l-.6-2.6,1.5,2.7c.9,1.6,2.4,2.8,3.4,2.8,1.1,0,2.1.5,2.3,1.2.5,1.3,5.8,1.6,10.1.5,1.7-.5,2.5-1.2,2.1-1.9-.5-.8-.2-.9,1-.5.9.4,1.5.3,1.2-.2s0-1.4.8-2c1.1-.9,1.4-.9,1.3.1-.1,4.6.2,4.9,4.6,4.6l4.2-.3.5-7c.4-5.6.8-7,2.3-7.3.9-.2,1.7.2,1.7.8s-.5.8-1.1.4c-.8-.5-.8-.1,0,1.3.5,1.1,1.1,3.9,1.3,6.3.4,5.2,2.4,6.9,6.5,5.4q2.8-1,2.6-9.4c-.1-10.9,0-10.6-4.2-12.7-2-1-3.8-2.1-4.1-2.4-.9-1.2-5.3-2.2-4.6-1.1.3.6,0,1.3-.6,1.6-.7.3.1.3,1.7,0,2.7-.4,2.8-.3.7.5-1.2.6-3.9.8-6.1.5-4.3-.6-7.4,1.5-6.4,4.4.5,1.5.4,1.6-.8.1-2.5-2.9-6.3-4.9-9.3-4.9-4.6,0-9.1,2-11,4.9q-1.7,2.5-1,.2c.3-1.4.1-2.6-.5-3.1-.8-.5-.7-1.5.4-3.6.8-1.6,1.5-2.3,1.5-1.5s.3,1.1.7.7c.8-.7-4.3-5.5-6.1-5.8-.6,0-1.6-.2-2.2-.2-.6-.1-1.8-.6-2.5-1.3-1.1-.9-1.4-.6-1.5,1.5ZM301.6,18.84c1.5,1.2,1.7,1.8.8,3.3-1.7,2.7-5.8,2.4-6.2-.6-.2-1.3.2-2.8,1-3.2,1.8-1.2,2.1-1.1,4.4.5ZM145.7,28.04l4,7.6,4-7.4c3.5-6.5,4.3-7.3,7.1-7.6l3.2-.3v26.1h-6.2l.3-8.4c.2-4.6.1-8.2-.3-8-.3.2-.9-.2-1.2-.8-.3-.7-.3-.3-.1.9.4,1.2-.6,4.4-2.2,7.7-3.7,7.7-5.5,7.5-9.6-1.2-3.5-7.5-4.2-6.8-3.5,3.5l.4,6.3h-5.5l-.3-13-.3-13h3.1c2.7,0,3.4.7,7.1,7.6ZM145.8,23.94c-.3.3-.9-.2-1.2-1.2-.6-1.4-.5-1.5.5-.6.7.7,1,1.5.7,1.8ZM288,24.94c0,2,.5,2.5,2.5,2.5,1.8,0,2.5.5,2.5,2s-.7,2-2.5,2c-2.3,0-2.5.3-2.5,5s.2,5,2.4,5,4.2,3.1,2.8,4.4c-1.1,1.2-6.8.5-9-1-1.9-1.3-2.2-2.4-2.2-7.6,0-4.9-.3-5.9-1.5-5.4-1.1.4-1.5-.1-1.5-1.9,0-1.6.6-2.5,1.5-2.5s1.5-.9,1.5-2.5c0-2.1.5-2.5,3-2.5s3,.4,3,2.5ZM183.9,28.94c1.1,1.1,1.7,3.9,1.9,9.5q.4,8-2.1,8c-1.4,0-2.7-.6-3-1.3-.4-1-.7-1-1.8,0-1.8,1.8-7.4,1.6-9.3-.3-2-2-2.1-6.8-.1-8.4.8-.7,3.5-1.3,6-1.4,3.5-.1,4.5-.5,4.2-1.6-.2-1.1-1.5-1.5-4.9-1.4-3.3,0-4.9-.5-5.7-1.8-.9-1.5-.6-1.9,2.2-2.7,4.3-1.3,10.6-.6,12.6,1.4ZM196,28.04c0,1.4.1,1.4,1.6,0,2.1-2.2,6.7-2,9.5.3,2.1,1.7,2.4,3,2.7,10l.4,8.1h-6.2v-6.3c0-6.5-1.1-8.7-4.2-8.7-2.5,0-3.8,3.1-3.8,9.4q0,5.6-3,5.6h-3v-20h3c2.1,0,3,.5,3,1.6ZM230,28.04c0,1.4.1,1.4,1.6,0,2-2.1,5.3-2,8.3,0,1.7,1.2,2.5,1.4,3,.5,1.4-2.3,7.5-2.4,10.1-.3,2.2,1.8,2.5,2.9,2.8,10.1l.4,8.1h-6.2v-6.4c0-7.1-1.7-9.9-4.8-7.9-1.3.7-1.8,2.8-2,7.7q-.3,6.6-3.2,6.6h-3v-6.9c0-6.1-.2-7-2-7.6-3.6-1.1-5,1.2-5,8.1v6.4h-6v-20h3c2.1,0,3,.5,3,1.6ZM274.5,28.94c2.2,2.1,2.5,3.3,2.5,10,0,7.3-.1,7.5-2.4,7.5-1.3,0-2.7-.6-3-1.3-.5-1-.7-1-1.2,0-.8,1.8-8,1.6-9.8-.3-2.1-2-2-6.8,0-8.5.9-.7,3.6-1.4,6-1.4,3.4,0,4.4-.4,4.1-1.5-.2-1.1-1.5-1.5-4.7-1.4-5.9.2-8.2-2.8-3.7-4.6,4.4-1.8,9.6-1.2,12.2,1.5ZM302,36.44v10h-6v-20h6v10ZM321,27.94c5.9,3.1,6.9,10.7,2.1,15.6-7,7-19.7.5-17.5-9,1.7-6.9,8.9-10,15.4-6.6ZM335,28.14c0,1.5.1,1.5,1.8,0,2.7-2.4,6.9-2.1,9.7.8,2.2,2.1,2.5,3.3,2.5,10v7.5h-6v-6.3c0-8.1-2.6-11-6.4-7.1-1.1,1-1.6,3.4-1.6,7.5q0,5.9-3,5.9h-3v-20h3c2.1,0,3,.5,3,1.7ZM167.5,32.54c-.5,1.4-.3,1.7.9,1.3,2.2-.8,2,.3-.2,1.5-1.6.9-1.8.6-1.8-2.4,0-1.8.4-3.1.9-2.8.4.2.5,1.3.2,2.4ZM258.5,32.44c-.5,1.5-.3,1.8.9,1.4,2.2-.8,2,.3-.2,1.5-1.5.8-1.9.6-1.9-.7-.2-2.2.5-4.2,1.2-4.2.4,0,.4.9,0,2ZM294.7,36.44c-.2,3.6-.5,4.6-1.2,3.7-.5-.8-1.6-1.2-2.4-.9s-1.1,0-.7-.7c.4-.6.1-1.1-.6-1.1-1,0-1-.2.1-.9.7-.5,1-1.4.7-2-.9-1.4,1.6-1,2.6.4.4.5.8,0,.8-1.3,0-1.2.2-2.2.4-2.2s.3,2.3.3,5ZM280.3,35.94c-.3.9-.8,1.4-1,1.1-.3-.3-.2-.9.2-1.5.9-1.6,1.5-1.3.8.4ZM212.3,42.44c.3,1.1.1,1.8-.4,1.4-.5-.3-.9-1.2-.9-2,0-2,.7-1.7,1.3.6ZM222.7,42.64c-.3.8-.6.5-.6-.6-.1-1.1.2-1.7.5-1.3.3.3.4,1.2.1,1.9ZM255,48.44c0,.5-.2,1-.4,1-.3,0-.8-.5-1.1-1-.3-.6-.1-1,.4-1,.6,0,1.1.4,1.1,1Z"/>
  <path class="cls-1" d="M139.1,29.04c0,1.1.3,1.4.6.6.3-.7.2-1.6-.1-1.9-.3-.4-.6.2-.5,1.3Z"/>
  <path class="cls-1" d="M283.8,30.14c.7.3,1.6.2,1.9-.1.4-.3-.2-.6-1.3-.5-1.1,0-1.4.3-.6.6Z"/>
  <path class="cls-1" d="M180.7,30.54c.7.7,1.5,1,1.8.7s-.2-.9-1.2-1.2c-1.4-.6-1.5-.5-.6.5Z"/>
  <path class="cls-1" d="M176.5,38.44c-3.8.7-4,3.4-.2,3.8,1.7.2,2.9-.2,3.3-1.2,1-2.5.1-3.2-3.1-2.6Z"/>
  <path class="cls-1" d="M235,28.84c0,.3.9,1.5,2,2.6s2,1.5,2,1v-1.8c0-.4-.3-.7-.7-.7-.5,0-1.4-.4-2-.8-.7-.5-1.3-.6-1.3-.3Z"/>
  <path class="cls-1" d="M261.5,38.54c-.4.6-.5,1.2-.2,1.5.2.3.7-.2,1-1.1.7-1.7.1-2-.8-.4Z"/>
  <path class="cls-1" d="M267.5,38.44c-3.8.7-4,3.4-.2,3.8,1.7.2,2.9-.2,3.3-1.2,1-2.5.1-3.2-3.1-2.6Z"/>
  <path class="cls-1" d="M308.9,32.14c-1.3,1.6-1.2,1.7.4.4s2.1-2.1,1.3-2.1c-.2,0-1,.8-1.7,1.7Z"/>
  <path class="cls-1" d="M312.2,32.64c-2.9,2.9-.5,8.8,3.7,8.8s6-3.9,3.7-7.5c-1.8-2.7-5.4-3.3-7.4-1.3ZM317.4,35.74c-.4,1.4-.3,1.7.6,1.2.8-.5,1.1-.3.8.5-.6,1.9-4.5,2.2-5.2.5-.8-2.3.4-4.4,2.5-4.2,1.4.1,1.7.6,1.3,2Z"/>
  <path class="cls-1" d="M323.1,38.04c0,1.1.3,1.4.6.6.3-.7.2-1.6-.1-1.9-.3-.4-.6.2-.5,1.3Z"/>
  <path class="cls-1" d="M344.7,31.54c.4,1.3.8,1.8,1.1,1,.2-.7-.1-1.8-.6-2.3-.8-.8-.9-.4-.5,1.3Z"/>
  <path class="cls-1" d="M35.5,16.34c-.3.5-.2,1.2.3,1.5s.9-.1.9-.9c0-1.7-.3-1.9-1.2-.6Z"/>
  <path class="cls-1" d="M90,17.74c0,.2,1.3,1.3,2.9,2.5,2.1,1.5,3.2,1.8,3.7,1,.4-.6.3-.8-.4-.4-.6.3-1.3.2-1.7-.4-.6-1-4.5-3.4-4.5-2.7Z"/>
  <path class="cls-1" d="M14.6,20.74c.3,1,.9,1.5,1.2,1.2s0-1.1-.7-1.8c-1-.9-1.1-.8-.5.6Z"/>
  <path class="cls-1" d="M147,20.34c0,.6.4,1.3,1,1.6s.7-.1.4-.9c-.7-1.8-1.4-2.1-1.4-.7Z"/>
  <path class="cls-1" d="M151.1,21.04c0,1.1.3,1.4.6.6.3-.7.2-1.6-.1-1.9-.3-.4-.6.2-.5,1.3Z"/>
  <path class="cls-1" d="M207.1,21.04c0,1.1.3,1.4.6.6.3-.7.2-1.6-.1-1.9-.3-.4-.6.2-.5,1.3Z"/>
  <path class="cls-1" d="M236.9,20.24c1.1.8,1.1,1,0,1.4-.9.3-.8.6.5,1.1,1.1.5,1.5.3,1-.5s.2-.9,2.2-.4c3.5.8,1.2-.8-2.6-1.8-1.7-.5-2.1-.4-1.1.2Z"/>
  <path class="cls-1" d="M245,20.44c-.9.6-1,1-.3,1,.6,0,1.5-.5,1.8-1,.8-1.2.4-1.2-1.5,0Z"/>
  <path class="cls-1" d="M317.6,20.74c.3,1,.9,1.5,1.2,1.2s0-1.1-.7-1.8c-1-.9-1.1-.8-.5.6Z"/>
  <path class="cls-1" d="M324.5,20.44c-1.6.7-1.7.9-.3.9.9.1,2-.4,2.3-.9q.7-1.1-2,0Z"/>
  <path class="cls-1" d="M125.1,22.04c0,1.1.3,1.4.6.6.3-.7.2-1.6-.1-1.9-.3-.4-.6.2-.5,1.3Z"/>
  <path class="cls-1" d="M177.8,21.14c.7.3,1.6.2,1.9-.1.4-.3-.2-.6-1.3-.5-1.1,0-1.4.3-.6.6Z"/>
  <path class="cls-1" d="M249.8,21.14c.7.3,1.6.2,1.9-.1.4-.3-.2-.6-1.3-.5-1.1,0-1.4.3-.6.6Z"/>
  <path class="cls-1" d="M264.8,21.14c.7.3,1.6.2,1.9-.1.4-.3-.2-.6-1.3-.5-1.1,0-1.4.3-.6.6Z"/>
  <path class="cls-1" d="M192.5,22.44c.3.5.8,1,1.1,1,.2,0,.4-.5.4-1,0-.6-.5-1-1.1-1-.5,0-.7.4-.4,1Z"/>
  <path class="cls-1" d="M227.8,22.14c.7.3,1.6.2,1.9-.1.4-.3-.2-.6-1.3-.5-1.1,0-1.4.3-.6.6Z"/>
  <path class="cls-1" d="M333,22.54c0,.5.5.7,1,.4.6-.3,1-.8,1-1.1,0-.2-.4-.4-1-.4-.5,0-1,.5-1,1.1Z"/>
  <path class="cls-1" d="M170.8,23.14c.7.3,1.6.2,1.9-.1.4-.3-.2-.6-1.3-.5-1.1,0-1.4.3-.6.6Z"/>
  <path class="cls-1" d="M174.8,23.14c.6.2,1.8.2,2.5,0,.6-.3.1-.5-1.3-.5s-1.9.2-1.2.5Z"/>
  <path class="cls-1" d="M72.2,24.44c.3.8-.5,2.3-1.6,3.3-2.1,1.8-2,1.8.7.1,2.6-1.5,2.7-1.5,2.8.2,0,1.1.3,1.3.6.7.2-.7-.3-2.3-1.2-3.5-1-1.3-1.5-1.6-1.3-.8Z"/>
  <path class="cls-1" d="M75.6,25.44c.6.8,1,2.6.8,4-.1,1.4,0,1.9.2,1.2.3-.6,1.1-.9,1.7-.5.8.5.8.2,0-.9-.7-.8-1.1-1.7-.8-2s-.3-1.1-1.2-1.9c-1.6-1.2-1.7-1.2-.7.1Z"/>
  <path class="cls-1" d="M15,28.44c0,.5.5,1,1,1,.6,0,1-.5,1-1,0-.6-.4-1-1-1-.5,0-1,.4-1,1Z"/>
  <path class="cls-1" d="M46.1,36.14c0,1.6.4,3.7.9,4.8.7,1.6.9,1.3.9-1.8.1-2.2.6-3.7,1.4-3.7s.7-.4-.3-1c-2.4-1.5-3-1.2-2.9,1.7Z"/>
  <path class="cls-1" d="M51.8,34.14c.7.3,1.6.2,1.9-.1.4-.3-.2-.6-1.3-.5-1.1,0-1.4.3-.6.6Z"/>
  <path class="cls-1" d="M54.4,38.74c-.1,1.6-.7,3.3-1.5,3.8-1.2.7-1.2.9,0,.9.8,0,2.2.7,3.1,1.5,1.7,1.6,5,1.1,5-.7,0-.5.4-.7.8-.4,1,.6.8-2.1-.2-4.6-.4-.9-.5-2.1-.2-2.6s-.1-.9-.9-.9-1.2.4-.9.9c.3.4-.4.8-1.6.8s-1.9-.4-1.6-.8c.3-.5,0-.9-.7-.9s-1.3,1.4-1.3,3ZM60,41.44c0,1.3-.7,2-2,2s-2-.7-2-2,.7-2,2-2,2,.7,2,2Z"/>
  <path class="cls-1" d="M52.1,38.04c0,1.1.3,1.4.6.6.3-.7.2-1.6-.1-1.9-.3-.4-.6.2-.5,1.3Z"/>
  <path class="cls-1" d="M78.7,39.34c-.4,1.7-.3,2.1.5,1.3.5-.5.8-1.6.6-2.3-.3-.8-.7-.3-1.1,1Z"/>
  <path class="cls-1" d="M0,42.44c0,.5.5,1,1.1,1,.5,0,.7-.5.4-1-.3-.6-.8-1-1.1-1-.2,0-.4.4-.4,1Z"/>
  <path class="cls-1" d="M90.1,45.04c0,1.1.3,1.4.6.6.3-.7.2-1.6-.1-1.9-.3-.4-.6.2-.5,1.3Z"/>
  <path class="cls-1" d="M233.1,45.04c0,1.1.3,1.4.6.6.3-.7.2-1.6-.1-1.9-.3-.4-.6.2-.5,1.3Z"/>
  <path class="cls-1" d="M73.6,46.14c-.6,1.4-.5,1.5.5.6.7-.7,1-1.5.7-1.8s-.9.2-1.2,1.2Z"/>
  <path class="cls-1" d="M61.1,46.44c-.9.5-.4.7,1.3.7,2.9,0,3.2-.2,1.3-1-.8-.3-2-.2-2.6.3Z"/>
  <path class="cls-1" d="M245,48.54c0,.5.5.7,1,.4.6-.3,1-.8,1-1.1,0-.2-.4-.4-1-.4-.5,0-1,.5-1,1.1Z"/>
  <path class="cls-1" d="M70.4,49.64c-.4.7-.4,1,.1.6.4-.4,1.4-.3,2.2.4,1.1.8,1.2.7.7-.6-.7-1.9-2-2.1-3-.4Z"/>
  <path class="cls-1" d="M181.5,49.54c-.4.6-.5,1.2-.2,1.5.2.3.7-.2,1-1.1.7-1.7.1-2-.8-.4Z"/>
  <path class="cls-1" d="M232.1,50.04c0,1.1.3,1.4.6.6.3-.7.2-1.6-.1-1.9-.3-.4-.6.2-.5,1.3Z"/>
  <path class="cls-1" d="M201.2,51.04c-.7.8-.8,1.4-.3,1.4,1,0,2.5-1.9,2-2.5-.2-.1-1,.3-1.7,1.1Z"/>
  <path class="cls-1" d="M257,49.64c0,.2.9,1.1,1.9,2,1.8,1.5,2,1.5,2.6,0,.3-.9.3-1.3-.1-1-.4.4-1.5.3-2.5-.3-1.1-.5-1.9-.8-1.9-.7Z"/>
  <path class="cls-1" d="M300.6,51.14c-.6,1.4-.5,1.5.5.6.7-.7,1-1.5.7-1.8s-.9.2-1.2,1.2Z"/>
  <path class="cls-1" d="M317.5,50.44c-.3.6.1.7.9.4,1.8-.7,2.1-1.4.7-1.4-.6,0-1.3.4-1.6,1Z"/>
  <path class="cls-1" d="M90,51.44c0,.5.5,1,1.1,1,.5,0,.7-.5.4-1-.3-.6-.8-1-1.1-1-.2,0-.4.4-.4,1Z"/>
  <path class="cls-1" d="M165.2,51.94c-1.5,1.8-4.7,2-3.6.3.4-.6-.3-.4-1.6.5-2.2,1.5-2.4,1.5-3.7-.1-.8-.9-1.2-1.1-.8-.4.5.9-.1,1.1-1.9.8-1.5-.3-2.4-.1-2.1.5.4.5-.6.9-2,.9-1.8,0-2.5-.4-2.2-1.3.3-.7-.3-1.3-1.3-1.3-1.1,0-1.6.5-1.2,1.5s.1,1.3-1.1.8c-.9-.3-1.9-.1-2.3.5-.4.7-.3.8.4.4,1.4-.8,1.5-.4.6,1.8-.5,1.4-.9,1.3-2.5-.5-1.1-1.2-1.9-2.5-1.9-2.9s-.8-1-1.8-1.2c-1.5-.4-1.8.3-2,5.4-.4,7.7.3,9.8,3.3,9.6,1.3-.1,2.1-.6,1.8-1-.2-.5.8-.6,2.4-.2,1.5.3,4.4.7,6.3.9,1.9.1,4.3.5,5.2.9,1.7.8,5.7-.8,7-2.8.4-.6.9-.4,1.4.7.8,2.3,3,2.2,4.7-.3,1.4-2,1.4-1.9,2.5.5,1.1,2.3,4.2,2.6,4.2.4,0-.5.5-.9,1.1-.9.5,0,.8.4.5.9-.4.5,1.8.9,4.8.8,4.3-.1,5.3-.4,4.9-1.7-.3-1,0-.9,1.1.4,1.4,1.8,1.7,1.8,4,.3,1.4-.9,2.7-1.3,3.1-.8.3.5-.1,1.1-.7,1.4-.7.2.3.4,2.3.4,2.8-.1,3.5-.5,3.1-1.6-.3-.8-.1-1.2.5-.8.5.3,1,0,1-.8s-.4-1.2-.9-.8c-1.3.7-.6-4,.7-4.9.6-.5.5-.8-.2-.8s-1.3-.5-1.3-1.1c0-.5.6-.7,1.3-.3.6.4.3-.2-.8-1.3-2.2-2.2-5.5-1.9-5.5.5,0,1.1-1,.6-3.3-1.6-1.8-1.8-3.9-3.2-4.7-3.1-1.1,0-1,.2.2.7s1.5,1.1.8,2.1c-.6,1.1-1.2,1.2-2.2.3-1.6-1.3-9.1-.5-8.2.9.3.5.1.9-.5.9-.5,0-1.3-.5-1.6-1-.3-.6-1.9-1-3.5-1-2.2,0-2.8-.4-2.4-1.5.8-1.9.3-1.9-1.4,0ZM139,58.14l2.2,3.8,2.2-3.7c1.1-2.1,2.4-3.8,2.9-3.8.4,0,.7,2.7.7,6s-.4,6-1,6c-.5,0-1-1.7-1-3.8l-.1-3.7-1.5,2.7c-1.9,3.6-3,3.5-4.3-.2-1.3-4-2.2-3.8-1.9.5.1,1.9-.1,3.7-.5,4.1s-.7-2-.7-5.4.2-6.2.4-6.2,1.4,1.7,2.6,3.7ZM158.7,58.04c1.8,2.9,1.3,4.7-2.1,7-2.4,1.5-2.8,1.5-5.1,0-3.2-2.1-3.4-6.8-.4-8.9,2.6-1.9,5.6-1.1,7.6,1.9ZM168.6,55.74c.4.4-.2.7-1.4.7-2,0-2.2.5-2.2,5,0,2.7-.4,5-1,5-.5,0-1-2.3-1-5,0-3.7-.4-5-1.4-5-.8,0-1.7-.4-2-.9-.6-1,8-.8,9,.2ZM172,61.04c0,3-.4,5.4-1,5.4s-1-2.7-1-6.1c0-3.7.4-5.8,1-5.4.6.3,1,3.1,1,6.1ZM181,55.44c3.3,1.8,4.4,4.8,2.6,7.4-1.9,3-4.9,3.8-7.4,2-3.1-2.2-3.4-5.3-.7-8s2.9-2.8,5.5-1.4ZM194.1,58.44c.3-2.5.7-4.3.8-4,.5,1.3.5,12,0,12-.4,0-1.9-1.9-3.5-4.2l-2.9-4.2-.6,4.5c-.7,4.8-1,4.5-1.5-1.6-.5-6.7.4-7.2,3.9-2.4l3.2,4.4.6-4.5ZM167.7,60.64c-.3.8-.6.5-.6-.6-.1-1.1.2-1.7.5-1.3.3.3.4,1.2.1,1.9ZM149.5,65.44c.3.5.1,1-.4,1-.6,0-1.1-.5-1.1-1,0-.6.2-1,.4-1,.3,0,.8.4,1.1,1Z"/>
  <path class="cls-1" d="M151,58.34c-1.3,2.5-.4,4.8,2.1,5.6,3.8,1.2,6.5-3.5,3.7-6.3-1.8-1.8-4.6-1.4-5.8.7ZM155.4,60.74c-.8,2.1-2.4,2.2-2.4.2,0-.8.5-1.5,1.1-1.5.5,0,.7-.6.3-1.3-.5-.9-.4-.9.5-.1.6.6.9,1.8.5,2.7Z"/>
  <path class="cls-1" d="M176,57.94c-2.6,3.2,1.3,8.1,4.8,5.9,3.4-2.2,2.2-7.4-1.8-7.4-1,0-2.3.7-3,1.5ZM180,58.94c.5-.3.8.3.7,1.4-.1,1.2-.6,1.7-1.6,1.3s-1.2-.1-.6.9c.5.8.4,1.1,0,.6-.5-.4-1-1.5-1.1-2.4-.3-2.1.8-4.2,1.4-2.5.2.7.8,1,1.2.7Z"/>
  <path class="cls-1" d="M170.5,51.44c-.3.5-.1,1,.4,1,.6,0,1.1-.5,1.1-1,0-.6-.2-1-.4-1-.3,0-.8.4-1.1,1Z"/>
  <path class="cls-1" d="M207.9,51.14c-.1.5-.1,1.2,0,1.6.1.5-.2.6-.7.3s-2.2-.2-3.8.3c-2.7.7-2.9,1.1-3,6.2-.1,3,.3,6,.9,6.7,1.4,1.8,8.8,1.2,10.5-.8q1.1-1.3.6.2c-.6,1.6.2,1.8,8.7,1.6,5.2-.1,9.7-.7,10.1-1.2.5-.7.8-.7.8.1,0,1.8,2.9,1.6,3.6-.2.4-.8,1-1.2,1.5-.9s.7,1,.3,1.5c-.3.6,2.8.8,7.9.7,8.1-.3,8.5-.4,7.5-2.3s-1-1.9,1.3.1c2.5,2.2,6.5,2.9,7.4,1.3.3-.5,0-.6-.8-.3-1,.4-1.4-.6-1.5-4-.2-3.7.1-4.4,1.3-4,1.1.5,1.3.2.8-1.2-.5-1.3-.3-1.5.8-.9,1.2.7,1.2.6,0-.6s-1.4-1.2-1.9,0c-.3,1-.8.8-1.7-.9l-1.2-2.2-2,2.2c-1.5,1.6-2.3,1.8-2.8.9-.6-.8-.4-1,.6-.4,1.2.8,1.2.6,0-.8-.7-.9-1.8-1.4-2.3-1.1-.6.4-1.4,0-1.9-.7-.7-1.2-1-1.2-2.1,0-1,1-1,1.2,0,.7,1.5-.9,1.5.4-.1,2.6-.9,1.1-2.2,1.4-4,1.1-2.2-.4-2.9,0-3.9,2.2-1.1,2.4-1,2.9.7,4.1,2.3,1.7,5.1,1.4,4.7-.5-.1-.6.5-1.9,1.3-2.8,1.5-1.4,1.5-1.3.9,1.3-1.1,4.9-4.3,6.1-8.1,3.1-.7-.5-1.3-2.2-1.3-3.8,0-3.4,3.4-6.1,6.7-5.3,1.8.5,2.2.3,1.7-1-.3-.9-1-1.4-1.4-1.1-.5.3-1.5-.2-2.3-1-1.2-1.1-1.6-1.2-2-.2-.3.9-.8.9-2.1-.2-1.4-1.2-2-1.1-4,.8-1.6,1.5-2.6,1.9-3.1,1.2-.3-.6-1-.9-1.5-.6-.4.3-1.1-.3-1.5-1.3-.6-1.5-.8-1.5-2.6.7-1.5,1.9-2.2,2.1-3.4,1.1-.8-.6-1.9-.9-2.5-.5-.5.3-1.6.3-2.2-.1-.9-.6-.5-1.1,1.2-1.6,2.3-.6,2.3-.7.2-.5-1.2.1-2.3.5-2.2,1,.1,1.2-2.3,3.4-3.7,3.4-.7,0-1.3-.4-1.3-.9s-.4-.7-.9-.4-1.2-.1-1.5-1c-.5-1.2-.2-1.5.9-1,.9.3,1.3.2,1-.4-.7-1.2-2.4-1.3-2.6-.3ZM227,52.44c0,.5-.5,1-1.1,1-.5,0-.7-.5-.4-1,.3-.6.8-1,1.1-1,.2,0,.4.4.4,1ZM237.5,52.54c.4.6,1.3.8,2.1.5s1.4-.3,1.4,0c0,.2-1,.8-2.2,1.3-2.2.8-3.7-.1-3.8-2.2,0-1.1,1.8-.9,2.5.4ZM210.6,56.54c1.7,1.4,1.8,4.3.4,7-.8,1.4-2.1,1.9-5,1.9h-4v-4.8c0-2.7.3-5.1.6-5.4.9-.9,6.4,0,8,1.3ZM221.5,55.44c.4.6-.7,1-2.4,1-2.1,0-3.1.5-3.1,1.5,0,.9.9,1.5,2.5,1.5,1.4,0,2.5.5,2.5,1.1,0,.5.4.8.9.4.5-.3,1.2-.1,1.6.4.5.9-3.3.7-6.2-.4-.8-.2-1.3.4-1.3,1.5,0,1.4.9,2,3.3,2.3,2.8.3,2.6.4-1,.5l-4.3.2v-4.8c0-2.7.2-5.1.4-5.3.9-.9,6.6-.8,7.1.1ZM229.4,55.04c2.8,1.1,1.7,2.4-1.4,1.7-2.3-.4-3-.2-3,1.1,0,.9.8,1.6,1.9,1.6,2.4,0,4.5,2.5,3.7,4.5-.6,1.8-7.6,2.1-7.6.4,0-.7.9-.9,2.3-.6,1.2.4,2.9.2,3.6-.3,1.1-.6.5-1.2-2.2-2.4-4-1.6-4.8-3.9-1.9-5.5,2-1.2,2.5-1.3,4.6-.5ZM235,60.44c0,3.3-.4,6-1,6s-1-2.7-1-6,.4-6,1-6,1,2.7,1,6ZM252.9,58.64l3.1,4.2v-4.3c0-2.5.4-4,1-3.6,1.2.7,1.1,11.5-.1,11.5-.5,0-.9-.3-.9-.8,0-.4-1.4-2.3-3-4.2l-3-3.5.4,3.8c.2,2.1-.1,4-.5,4.3-.5.3-.9-2.2-.9-5.5s.2-6.1.4-6.1,1.8,1.9,3.5,4.2ZM243.2,60.64c-.2,1-.8,1.8-1.3,1.8s-.9-.8-.9-1.8.6-1.9,1.4-1.9,1.1.8.8,1.9Z"/>
  <path class="cls-1" d="M204,60.44c0,3.2.4,4,1.8,4,3.8,0,6-6.1,2.6-7.4-3.5-1.3-4.4-.7-4.4,3.4Z"/>
  <path class="cls-1" d="M280,51.34c-.8.6-1.8.7-2.4.4-.5-.3-.6-.1-.3.5.8,1.2,4.7.4,4.7-.9,0-1.1-.1-1.1-2,0Z"/>
  <path class="cls-1" d="M312,51.54c0,.5.5.7,1,.4.6-.3,1-.8,1-1.1,0-.2-.4-.4-1-.4-.5,0-1,.5-1,1.1Z"/>
  <path class="cls-1" d="M85.2,53.64c-.7.7-1.2,1.6-1.2,2.1s.7.1,1.6-.8,1.4-1.8,1.2-2c-.2-.3-1,.1-1.6.7Z"/>
  <path class="cls-1" d="M77,57.94c-2.8,2.9-3.1,3.5-1.7,4.1,1,.3,2.4.1,3.2-.6,1.2-1,1.8-1,3.1.1.9.7,4,1.3,6.9,1.3,6.1,0,9.5-2.2,9.5-6.1,0-2.1-.3-2.2-2-1.3-1.1.6-2,1.5-2,2.1s.6.7,1.3.3c.6-.4.9-.4.5.1-1.2,1.2-8.4,1.6-11.3.5-1.4-.5-2.5-1.6-2.5-2.5,0-2.3-1.3-1.8-5,2ZM81,57.84c0,.2-.7.7-1.6,1-.8.3-1.2.2-.9-.4.6-1,2.5-1.4,2.5-.6ZM85.5,61.24c-.3.3-1.1,0-1.8-.7-.9-1-.8-1.1.6-.5,1,.3,1.5.9,1.2,1.2Z"/>
  <path class="cls-1" d="M101.4,57.94c1.1.8,2.9,1.4,4,1.4,2-.1,2.1-.1.1-.6-1.1-.3-2.4-.9-2.9-1.4-.6-.5-1.5-.9-2-.9-.6,0-.2.7.8,1.5Z"/>
  <path class="cls-1" d="M117.5,57.34c-.3.6-2.6,1.3-5.1,1.7-2.5.3-4.3.9-4,1.1.8.9,8.3-.8,10.3-2.2,1-.8,1.3-1.5.6-1.5-.6,0-1.4.4-1.8.9Z"/>
  <path class="cls-1" d="M30.6,61.94c-.3.9-.6,2.2-.5,2.8,0,.7.5.1,1-1.2s.8-2.6.5-2.8c-.2-.2-.6.3-1,1.2Z"/>
  <path class="cls-1" d="M70.5,61.44c-.3.5-.1,1,.4,1,.6,0,1.1-.5,1.1-1,0-.6-.2-1-.4-1-.3,0-.8.4-1.1,1Z"/>
  <path class="cls-1" d="M100.5,63.54c.1,1,.7,2.4,1.3,2.9.8.7.9.7.3-.1-.5-.6-.7-1.7-.5-2.4.3-.7.1-1.5-.4-1.9-.5-.3-.8.4-.7,1.5Z"/>
  <path class="cls-1" d="M32.1,66.04c0,1.1.3,1.4.6.6.3-.7.2-1.6-.1-1.9-.3-.4-.6.2-.5,1.3Z"/>
  <path class="cls-1" d="M74.8,65.14c.7.3,1.6.2,1.9-.1.4-.3-.2-.6-1.3-.5-1.1,0-1.4.3-.6.6Z"/>
  <path class="cls-1" d="M78.1,67.04c0,1.1.3,1.4.6.6.3-.7.2-1.6-.1-1.9-.3-.4-.6.2-.5,1.3Z"/>
  <path class="cls-1" d="M81.3,66.74c.2.6,1.2,1.6,2.3,2.3,1.6,1,2.5,1,5.4-.3,3.9-1.7,3.6-1.9-3.3-2.6-3.1-.3-4.7-.1-4.4.6Z"/>
  <path class="cls-1" d="M124.2,68.34c.7.9,1.4,1.8,1.5,2,.2.2.3-.5.3-1.6s-.7-2-1.5-2c-1.2,0-1.2.3-.3,1.6Z"/>
  <path class="cls-1" d="M98.8,69.14c.6.2,1.8.2,2.5,0,.6-.3.1-.5-1.3-.5s-1.9.2-1.2.5Z"/>
  <path class="cls-1" d="M79,70.44c0,.5.5,1,1,1,.6,0,1-.5,1-1,0-.6-.4-1-1-1-.5,0-1,.4-1,1Z"/>
  <path class="cls-1" d="M91.5,70.44c-.3.5-.2,1,.4,1,.5,0,1.3-.5,1.6-1,.3-.6.2-1-.4-1-.5,0-1.3.4-1.6,1Z"/>
  <path class="cls-1" d="M38.8,72.14c.7.3,1.6.2,1.9-.1.4-.3-.2-.6-1.3-.5-1.1,0-1.4.3-.6.6Z"/>
  <path class="cls-1" d="M40.8,74.14c.7.3,1.6.2,1.9-.1.4-.3-.2-.6-1.3-.5-1.1,0-1.4.3-.6.6Z"/>
</svg>